<svg width="210" height="24" viewBox="0 0 210 24" fill="none" xmlns="http://www.w3.org/2000/svg">
  <!-- Satellite dish icon: traced from Frame 138.png, viewBox crops to dish content -->
  <svg x="0" y="0" width="22" height="24" viewBox="28 14 207 232">
    <path d="M 127.20 21.20 C 121.66 26.75, 129.73 32.38, 148 35.69 C 149.93 36.04, 152.63 37.10, 154 38.04 C 155.38 38.99, 159.48 41.38, 163.12 43.36 C 176.10 50.41, 193.21 66.27, 200.50 78 C 202.04 80.47, 204.35 83.77, 205.65 85.33 C 206.94 86.88, 208 88.84, 208 89.69 C 208 90.53, 209.53 95.34, 211.40 100.36 C 213.86 106.96, 215.15 112.67, 216.05 120.90 C 217.38 133.12, 218.76 136, 223.30 136 C 228.24 136, 229.02 131.55, 226.96 115.13 C 225.83 106.13, 219.95 88.82, 216.88 85.44 C 215.84 84.30, 215 82.75, 215 82.00 C 215 70.22, 169.16 28, 156.37 28 C 155.31 28, 153.41 27.27, 152.13 26.38 C 146.81 22.65, 129.37 19.03, 127.20 21.20 M 129.20 40.20 C 124.85 44.55, 128.92 49.21, 139 51.42 C 155.78 55.11, 175.20 69.07, 186.25 85.38 C 188.53 88.75, 190.98 92.09, 191.69 92.82 C 192.41 93.55, 193 94.99, 193 96.03 C 193 97.08, 193.94 100.30, 195.08 103.21 C 196.23 106.12, 197.69 112.95, 198.33 118.39 C 199.75 130.38, 202.43 133.91, 207.58 130.54 C 210.28 128.77, 210.28 128.76, 209.63 119.55 C 209.02 110.85, 204.66 94.71, 202.09 91.61 C 201.56 90.97, 199.73 87.78, 198.01 84.52 C 189.45 68.25, 162.53 45, 152.25 45 C 151.26 45, 149.49 44.33, 148.32 43.51 C 143.62 40.22, 131.31 38.09, 129.20 40.20 M 129.82 59.50 C 127.48 64.63, 132.53 68.97, 140.86 68.99 C 144.28 69.00, 158.36 77.67, 164.44 83.50 C 174.62 93.27, 178.94 101.79, 180.96 116.02 C 182.38 126.01, 185.20 129.25, 189.91 126.29 C 193.60 123.97, 191.71 105.47, 187.11 99 C 186.13 97.63, 185.00 95.19, 184.61 93.60 C 182.18 83.83, 163.50 66.32, 150.84 61.95 C 147.90 60.93, 143.70 59.42, 141.50 58.59 C 135.19 56.22, 131.17 56.53, 129.82 59.50 M 57.62 61.47 C 51.99 63.07, 46.15 67.42, 44.02 71.60 C 43.21 73.19, 41.50 76.13, 40.22 78.13 C 38.58 80.69, 37.94 83.05, 38.06 86.13 C 38.15 88.53, 37.41 92.63, 36.41 95.22 C 34.46 100.29, 35.45 109.82, 38.41 114.50 C 39.11 115.60, 39.98 118.03, 40.35 119.91 C 41.02 123.33, 52.15 142.53, 54.67 144.62 C 55.42 145.24, 57.33 147.68, 58.92 150.06 C 61.82 154.37, 61.82 154.37, 59.41 157.92 C 54.02 165.84, 59.15 178.72, 69.08 182.18 C 70.90 182.81, 72 183.90, 72 185.06 C 72 187.07, 69.00 193.95, 68.06 194.08 C 67.75 194.12, 64.80 194.24, 61.50 194.33 C 56.55 194.47, 54.80 195.02, 51.50 197.49 C 46.37 201.33, 46.03 201.84, 46.02 205.76 C 46.00 208.13, 44.77 210.54, 41.50 214.55 C 34.91 222.64, 35.62 230.74, 43.02 232.13 C 44.94 232.48, 47.92 233.10, 49.65 233.49 C 53.41 234.35, 57 231.47, 57 227.57 C 57 225.63, 58.49 224.24, 64.63 220.52 C 72.19 215.93, 72.28 215.90, 75.56 217.46 C 79.61 219.38, 80.40 221.58, 80.14 230.10 C 79.89 238.15, 81.00 239.41, 88.26 239.30 C 94.94 239.20, 96.34 237.46, 95.71 230 C 94.73 218.50, 99.57 213.97, 107.81 218.65 C 115.94 223.28, 119 225.95, 119 228.40 C 119 232.47, 122.36 234.51, 126.87 233.16 C 128.99 232.52, 131.62 232, 132.71 232 C 138.57 232, 139.88 222.59, 135.01 215.52 C 133.37 213.13, 131.46 210.98, 130.76 210.75 C 130.01 210.49, 129.50 208.59, 129.50 206.00 C 129.50 199.72, 122.70 194.77, 113.26 194.17 C 107.12 193.78, 106.78 193.62, 105.25 190.39 C 103.14 185.97, 103.86 185.50, 109.13 187.89 C 123.57 194.43, 146.15 196.73, 159.80 193.06 C 163.41 192.08, 170 186.34, 170 184.17 C 170 183.75, 171.53 182.85, 173.40 182.17 C 179.56 179.95, 185.42 162.17, 183.35 151.98 C 180.63 138.54, 167.32 114.21, 158.71 106.93 C 156.51 105.07, 155.58 103.33, 155.37 100.67 C 154.67 91.74, 146.24 84.65, 136.21 84.54 C 132.90 84.50, 130.60 83.97, 130.08 83.13 C 128.56 80.68, 103.52 67, 100.55 67 C 99.73 67, 97.36 66.12, 95.28 65.04 C 87.47 61.00, 66.34 58.99, 57.62 61.47 M 137.67 91.67 C 134.89 94.44, 140.98 102.43, 145.39 101.80 C 148.62 101.34, 148.75 96.66, 145.61 93.52 C 143.24 91.14, 139.14 90.19, 137.67 91.67 M 90.20 135.20 C 88.58 136.82, 88.68 143.18, 90.36 145.47 C 92.25 148.07, 95.52 146.84, 94.04 144.08 C 93.47 143.01, 93 140.30, 93 138.07 C 93 133.87, 92.27 133.13, 90.20 135.20 M 158 141 C 158 143.89, 158.42 145, 159.50 145 C 161.08 145, 161.38 143.01, 160.37 139.25 C 159.40 135.63, 158 136.66, 158 141 M 108.71 151.10 C 107.73 151.67, 105.63 151.86, 104.06 151.51 C 100.77 150.79, 99.22 152.35, 101.04 154.54 C 102.65 156.49, 109.45 156.41, 111.43 154.43 C 114.68 151.17, 112.72 148.77, 108.71 151.10" fill="#FAFAFA" fill-rule="evenodd"/>
  </svg>

  <!-- "Signal" — semibold, white -->
  <text x="28" y="18"
    font-family="Inter, -apple-system, BlinkMacSystemFont, 'Segoe UI', sans-serif"
    font-size="17" font-weight="600" fill="#FAFAFA" letter-spacing="-0.2">Signal</text>

  <!-- "Compounder" — regular, faded grey -->
  <text x="83" y="18"
    font-family="Inter, -apple-system, BlinkMacSystemFont, 'Segoe UI', sans-serif"
    font-size="17" font-weight="400" fill="#9F9FA9"> Compounder</text>
</svg>
